<?xml version="1.0" encoding="UTF-8" standalone="no"?>
<!-- Created with Inkscape (http://www.inkscape.org/) -->

<svg
   width="48"
   height="48"
   viewBox="0 0 12.7 12.7"
   version="1.1"
   id="svg5"
   xmlns="http://www.w3.org/2000/svg"
   xmlns:svg="http://www.w3.org/2000/svg">
  <defs
     id="defs2" />
  <g
     id="layer1">
    <path
       id="rect7150"
       style="fill:#ffffff;stroke:#000000;stroke-width:1.05833;stroke-linecap:square;paint-order:stroke fill markers"
       d="m 2.9314592,0.52916682 h 5.9320825 c 0.9436763,0 1.7197913,0.76363328 1.7197913,1.69253948 v 9.1613887 c 0,0.436407 -0.363397,0.787738 -0.8147924,0.787738 H 2.9314592 c -0.451395,0 -0.8147924,-0.351331 -0.8147924,-0.787738 V 1.3169055 c 0,-0.43640723 0.3633974,-0.78773868 0.8147924,-0.78773868 z" />
    <path
       style="fill:none;stroke:#000000;stroke-width:0.529167;stroke-linecap:butt;stroke-linejoin:miter;stroke-miterlimit:4;stroke-dasharray:none;stroke-opacity:1"
       d="m 8.6107798,0.25162283 c 0,0 -0.1213782,1.41159297 0.3785411,1.91151237 0.4999194,0.4999193 1.8197151,0.7020164 1.8197151,0.7020164"
       id="path10952" />
    <path
       style="fill:none;stroke:#000000;stroke-width:0.557224;stroke-linecap:butt;stroke-linejoin:miter;stroke-miterlimit:4;stroke-dasharray:0.557224, 0.557224;stroke-dashoffset:0;stroke-opacity:1"
       d="M 3.5246113,1.06908 V 11.63092"
       id="path14185" />
    <circle
       style="fill:#ffffff;fill-opacity:1;stroke:#000000;stroke-width:1.05833;stroke-linecap:square;stroke-miterlimit:4;stroke-dasharray:none;stroke-dashoffset:0;stroke-opacity:1;paint-order:stroke fill markers"
       id="path14317"
       cx="8.2422323"
       cy="7.9052596"
       r="3.6022027" />
    <path
       id="path14902"
       style="fill:none;stroke:#ff0000;stroke-width:0.79375;stroke-linecap:butt;stroke-linejoin:miter;stroke-miterlimit:4;stroke-dasharray:none;stroke-opacity:1"
       d="M 10.359339,10.022366 6.1251274,5.7881545 m 4.2342116,0 -4.2342116,4.2342115" />
  </g>
</svg>
