<?xml version="1.0" encoding="UTF-8" standalone="no"?>
<svg
   width="128"
   height="128"
   viewBox="0 0 33.866664 33.866668"
   version="1.1"
   id="svg8"
   xmlns="http://www.w3.org/2000/svg"
   xmlns:svg="http://www.w3.org/2000/svg"
   xmlns:rdf="http://www.w3.org/1999/02/22-rdf-syntax-ns#"
   xmlns:cc="http://creativecommons.org/ns#"
   xmlns:dc="http://purl.org/dc/elements/1.1/">
  <defs
     id="defs2" />
  <metadata
     id="metadata5">
    <rdf:RDF>
      <cc:Work
         rdf:about="">
        <dc:format>image/svg+xml</dc:format>
        <dc:type
           rdf:resource="http://purl.org/dc/dcmitype/StillImage" />
      </cc:Work>
    </rdf:RDF>
  </metadata>
  <g
     id="layer1"
     style="display:inline">
    <path
       id="path1"
       style="display:inline;fill:#000000;fill-opacity:1;stroke:none;stroke-width:0;stroke-linecap:round;stroke-linejoin:round;stroke-dasharray:none;stroke-opacity:1;paint-order:fill markers stroke"
       d="M 30.450499,8.0747452 A 16.290869,16.290869 0 0 0 7.8405575,3.6503422 16.290869,16.290869 0 0 0 3.4161532,26.260285 16.290869,16.290869 0 0 0 13.058922,32.990021 l 1.933857,-4.742879 0.365772,-0.89724 A 10.334432,10.334432 0 0 1 8.3584676,22.935674 10.334432,10.334432 0 0 1 11.165167,8.5926563 10.334432,10.334432 0 0 1 25.508185,11.399355 10.334432,10.334432 0 0 1 22.701487,25.742374 l -1.440149,-2.140905 -1.893419,4.642535 -1.892599,4.642695 5.013636,-0.0029 5.013795,-0.0039 -1.476655,-2.195169 A 16.290869,16.290869 0 0 0 30.450499,8.0747452 Z" />
  </g>
</svg>
